{
	"asset":{
		"generator":"Khronos glTF Blender I/O v4.0.44",
		"version":"2.0"
	},
	"extensionsUsed":[
		"KHR_materials_specular",
		"KHR_materials_ior"
	],
	"scene":0,
	"scenes":[
		{
			"name":"Scene",
			"nodes":[
				0,
				1,
				2,
				3,
				4,
				5,
				6
			]
		}
	],
	"nodes":[
		{
			"mesh":0,
			"name":"Circle",
			"rotation":[
				0.7071068286895752,
				0,
				0,
				0.7071068286895752
			]
		},
		{
			"mesh":1,
			"name":"Circle.001",
			"rotation":[
				0.7071068286895752,
				0,
				0,
				0.7071068286895752
			]
		},
		{
			"mesh":2,
			"name":"Circle.002",
			"rotation":[
				0.7071068286895752,
				0,
				0,
				0.7071068286895752
			]
		},
		{
			"mesh":3,
			"name":"Plane",
			"rotation":[
				0.7071068286895752,
				0,
				0,
				0.7071068286895752
			]
		},
		{
			"mesh":4,
			"name":"Plane.001",
			"rotation":[
				0.7071068286895752,
				0,
				0,
				0.7071068286895752
			]
		},
		{
			"mesh":5,
			"name":"Plane.002",
			"rotation":[
				0.7071068286895752,
				0,
				0,
				0.7071068286895752
			]
		},
		{
			"mesh":6,
			"name":"Plane.003",
			"rotation":[
				0.7071068286895752,
				0,
				0,
				0.7071068286895752
			]
		}
	],
	"materials":[
		{
			"doubleSided":true,
			"extensions":{
				"KHR_materials_specular":{
					"specularFactor":0
				},
				"KHR_materials_ior":{
					"ior":1.4500000476837158
				}
			},
			"name":"Material.001",
			"pbrMetallicRoughness":{
				"baseColorFactor":[
					0.800000011920929,
					0.800000011920929,
					0.800000011920929,
					1
				],
				"metallicFactor":0
			}
		},
		{
			"doubleSided":true,
			"extensions":{
				"KHR_materials_specular":{
					"specularFactor":0
				},
				"KHR_materials_ior":{
					"ior":1.4500000476837158
				}
			},
			"name":"Material.002",
			"pbrMetallicRoughness":{
				"baseColorFactor":[
					0.800000011920929,
					0.800000011920929,
					0.800000011920929,
					1
				],
				"metallicFactor":0
			}
		},
		{
			"doubleSided":true,
			"extensions":{
				"KHR_materials_specular":{
					"specularFactor":0
				},
				"KHR_materials_ior":{
					"ior":1.4500000476837158
				}
			},
			"name":"Material.004",
			"pbrMetallicRoughness":{
				"baseColorFactor":[
					0.800000011920929,
					0.800000011920929,
					0.800000011920929,
					1
				],
				"metallicFactor":0
			}
		},
		{
			"doubleSided":true,
			"extensions":{
				"KHR_materials_specular":{
					"specularFactor":0
				},
				"KHR_materials_ior":{
					"ior":1.4500000476837158
				}
			},
			"name":"(null)",
			"pbrMetallicRoughness":{
				"baseColorFactor":[
					0.800000011920929,
					0.800000011920929,
					0.800000011920929,
					1
				],
				"metallicFactor":0
			}
		},
		{
			"doubleSided":true,
			"extensions":{
				"KHR_materials_specular":{
					"specularFactor":0
				},
				"KHR_materials_ior":{
					"ior":1.4500000476837158
				}
			},
			"name":"Material.003",
			"pbrMetallicRoughness":{
				"baseColorFactor":[
					0.800000011920929,
					0.800000011920929,
					0.800000011920929,
					1
				],
				"metallicFactor":0
			}
		},
		{
			"doubleSided":true,
			"extensions":{
				"KHR_materials_specular":{
					"specularFactor":0
				},
				"KHR_materials_ior":{
					"ior":1.4500000476837158
				}
			},
			"name":"Material.010",
			"pbrMetallicRoughness":{
				"baseColorFactor":[
					0.800000011920929,
					0.800000011920929,
					0.800000011920929,
					1
				],
				"metallicFactor":0
			}
		},
		{
			"doubleSided":true,
			"extensions":{
				"KHR_materials_specular":{
					"specularFactor":0
				},
				"KHR_materials_ior":{
					"ior":1.4500000476837158
				}
			},
			"name":"Material.005",
			"pbrMetallicRoughness":{
				"baseColorFactor":[
					0.800000011920929,
					0.800000011920929,
					0.800000011920929,
					1
				],
				"metallicFactor":0
			}
		}
	],
	"meshes":[
		{
			"name":"Circle",
			"primitives":[
				{
					"attributes":{
						"POSITION":0,
						"NORMAL":1,
						"TEXCOORD_0":2
					},
					"indices":3,
					"material":0
				},
				{
					"attributes":{
						"POSITION":4,
						"NORMAL":5,
						"TEXCOORD_0":6
					},
					"indices":7,
					"material":1
				}
			]
		},
		{
			"name":"Circle.001",
			"primitives":[
				{
					"attributes":{
						"POSITION":8,
						"NORMAL":9,
						"TEXCOORD_0":10
					},
					"indices":11,
					"material":1
				},
				{
					"attributes":{
						"POSITION":12,
						"NORMAL":13,
						"TEXCOORD_0":14
					},
					"indices":15,
					"material":2
				}
			]
		},
		{
			"name":"Circle.002",
			"primitives":[
				{
					"attributes":{
						"POSITION":16,
						"NORMAL":17,
						"TEXCOORD_0":18
					},
					"indices":19,
					"material":3
				}
			]
		},
		{
			"name":"Plane",
			"primitives":[
				{
					"attributes":{
						"POSITION":20,
						"NORMAL":21,
						"TEXCOORD_0":22
					},
					"indices":23,
					"material":4
				}
			]
		},
		{
			"name":"Plane.001",
			"primitives":[
				{
					"attributes":{
						"POSITION":24,
						"NORMAL":25,
						"TEXCOORD_0":26
					},
					"indices":27,
					"material":5
				}
			]
		},
		{
			"name":"Plane.002",
			"primitives":[
				{
					"attributes":{
						"POSITION":28,
						"NORMAL":29,
						"TEXCOORD_0":30
					},
					"indices":31,
					"material":2
				}
			]
		},
		{
			"name":"Plane.003",
			"primitives":[
				{
					"attributes":{
						"POSITION":32,
						"NORMAL":33,
						"TEXCOORD_0":34
					},
					"indices":35,
					"material":6
				}
			]
		}
	],
	"accessors":[
		{
			"bufferView":0,
			"componentType":5126,
			"count":6871,
			"max":[
				0.5098289847373962,
				0.4687640070915222,
				-0.13142800331115723
			],
			"min":[
				-0.6424480080604553,
				-0.4685159921646118,
				-3.3681130409240723
			],
			"type":"VEC3"
		},
		{
			"bufferView":1,
			"componentType":5126,
			"count":6871,
			"type":"VEC3"
		},
		{
			"bufferView":2,
			"componentType":5126,
			"count":6871,
			"type":"VEC2"
		},
		{
			"bufferView":3,
			"componentType":5123,
			"count":37392,
			"type":"SCALAR"
		},
		{
			"bufferView":4,
			"componentType":5126,
			"count":1206,
			"max":[
				0.5434659719467163,
				0.5024769902229309,
				-1.2666690349578857
			],
			"min":[
				-0.6601970195770264,
				-0.5024769902229309,
				-1.3983969688415527
			],
			"type":"VEC3"
		},
		{
			"bufferView":5,
			"componentType":5126,
			"count":1206,
			"type":"VEC3"
		},
		{
			"bufferView":6,
			"componentType":5126,
			"count":1206,
			"type":"VEC2"
		},
		{
			"bufferView":7,
			"componentType":5123,
			"count":6384,
			"type":"SCALAR"
		},
		{
			"bufferView":8,
			"componentType":5126,
			"count":1590,
			"max":[
				-0.2619209885597229,
				0.06105099990963936,
				-0.5604280233383179
			],
			"min":[
				-0.8107510209083557,
				-0.06950099766254425,
				-3.342881917953491
			],
			"type":"VEC3"
		},
		{
			"bufferView":9,
			"componentType":5126,
			"count":1590,
			"type":"VEC3"
		},
		{
			"bufferView":10,
			"componentType":5126,
			"count":1590,
			"type":"VEC2"
		},
		{
			"bufferView":11,
			"componentType":5123,
			"count":8832,
			"type":"SCALAR"
		},
		{
			"bufferView":12,
			"componentType":5126,
			"count":1454,
			"max":[
				-0.060315001755952835,
				0.07101400196552277,
				-0.9790989756584167
			],
			"min":[
				-0.654118001461029,
				-0.07101500034332275,
				-3.3580679893493652
			],
			"type":"VEC3"
		},
		{
			"bufferView":13,
			"componentType":5126,
			"count":1454,
			"type":"VEC3"
		},
		{
			"bufferView":14,
			"componentType":5126,
			"count":1454,
			"type":"VEC2"
		},
		{
			"bufferView":15,
			"componentType":5123,
			"count":8064,
			"type":"SCALAR"
		},
		{
			"bufferView":16,
			"componentType":5126,
			"count":2617,
			"max":[
				0.1774819940328598,
				0.19566400349140167,
				-3.0428969860076904
			],
			"min":[
				-0.11539900302886963,
				0.12682899832725525,
				-3.335777997970581
			],
			"type":"VEC3"
		},
		{
			"bufferView":17,
			"componentType":5126,
			"count":2617,
			"type":"VEC3"
		},
		{
			"bufferView":18,
			"componentType":5126,
			"count":2617,
			"type":"VEC2"
		},
		{
			"bufferView":19,
			"componentType":5123,
			"count":14016,
			"type":"SCALAR"
		},
		{
			"bufferView":20,
			"componentType":5126,
			"count":2367,
			"max":[
				0.728954017162323,
				0.026266999542713165,
				-3.354887008666992
			],
			"min":[
				-0.1315920054912567,
				-0.030466999858617783,
				-3.6074459552764893
			],
			"type":"VEC3"
		},
		{
			"bufferView":21,
			"componentType":5126,
			"count":2367,
			"type":"VEC3"
		},
		{
			"bufferView":22,
			"componentType":5126,
			"count":2367,
			"type":"VEC2"
		},
		{
			"bufferView":23,
			"componentType":5123,
			"count":13440,
			"type":"SCALAR"
		},
		{
			"bufferView":24,
			"componentType":5126,
			"count":3213,
			"max":[
				0.8217210173606873,
				0.01992099918425083,
				-3.0406739711761475
			],
			"min":[
				-0.08133599907159805,
				-0.026644999161362648,
				-3.4249110221862793
			],
			"type":"VEC3"
		},
		{
			"bufferView":25,
			"componentType":5126,
			"count":3213,
			"type":"VEC3"
		},
		{
			"bufferView":26,
			"componentType":5126,
			"count":3213,
			"type":"VEC2"
		},
		{
			"bufferView":27,
			"componentType":5123,
			"count":15456,
			"type":"SCALAR"
		},
		{
			"bufferView":28,
			"componentType":5126,
			"count":418,
			"max":[
				-0.037602998316287994,
				0.0385809987783432,
				-3.363970994949341
			],
			"min":[
				-0.08522400259971619,
				-0.0385809987783432,
				-3.4143660068511963
			],
			"type":"VEC3"
		},
		{
			"bufferView":29,
			"componentType":5126,
			"count":418,
			"type":"VEC3"
		},
		{
			"bufferView":30,
			"componentType":5126,
			"count":418,
			"type":"VEC2"
		},
		{
			"bufferView":31,
			"componentType":5123,
			"count":2304,
			"type":"SCALAR"
		},
		{
			"bufferView":32,
			"componentType":5126,
			"count":4,
			"max":[
				60,
				60,
				0
			],
			"min":[
				-60,
				-60,
				0
			],
			"type":"VEC3"
		},
		{
			"bufferView":33,
			"componentType":5126,
			"count":4,
			"type":"VEC3"
		},
		{
			"bufferView":34,
			"componentType":5126,
			"count":4,
			"type":"VEC2"
		},
		{
			"bufferView":35,
			"componentType":5123,
			"count":6,
			"type":"SCALAR"
		}
	],
	"bufferViews":[
		{
			"buffer":0,
			"byteLength":82452,
			"byteOffset":0,
			"target":34962
		},
		{
			"buffer":0,
			"byteLength":82452,
			"byteOffset":82452,
			"target":34962
		},
		{
			"buffer":0,
			"byteLength":54968,
			"byteOffset":164904,
			"target":34962
		},
		{
			"buffer":0,
			"byteLength":74784,
			"byteOffset":219872,
			"target":34963
		},
		{
			"buffer":0,
			"byteLength":14472,
			"byteOffset":294656,
			"target":34962
		},
		{
			"buffer":0,
			"byteLength":14472,
			"byteOffset":309128,
			"target":34962
		},
		{
			"buffer":0,
			"byteLength":9648,
			"byteOffset":323600,
			"target":34962
		},
		{
			"buffer":0,
			"byteLength":12768,
			"byteOffset":333248,
			"target":34963
		},
		{
			"buffer":0,
			"byteLength":19080,
			"byteOffset":346016,
			"target":34962
		},
		{
			"buffer":0,
			"byteLength":19080,
			"byteOffset":365096,
			"target":34962
		},
		{
			"buffer":0,
			"byteLength":12720,
			"byteOffset":384176,
			"target":34962
		},
		{
			"buffer":0,
			"byteLength":17664,
			"byteOffset":396896,
			"target":34963
		},
		{
			"buffer":0,
			"byteLength":17448,
			"byteOffset":414560,
			"target":34962
		},
		{
			"buffer":0,
			"byteLength":17448,
			"byteOffset":432008,
			"target":34962
		},
		{
			"buffer":0,
			"byteLength":11632,
			"byteOffset":449456,
			"target":34962
		},
		{
			"buffer":0,
			"byteLength":16128,
			"byteOffset":461088,
			"target":34963
		},
		{
			"buffer":0,
			"byteLength":31404,
			"byteOffset":477216,
			"target":34962
		},
		{
			"buffer":0,
			"byteLength":31404,
			"byteOffset":508620,
			"target":34962
		},
		{
			"buffer":0,
			"byteLength":20936,
			"byteOffset":540024,
			"target":34962
		},
		{
			"buffer":0,
			"byteLength":28032,
			"byteOffset":560960,
			"target":34963
		},
		{
			"buffer":0,
			"byteLength":28404,
			"byteOffset":588992,
			"target":34962
		},
		{
			"buffer":0,
			"byteLength":28404,
			"byteOffset":617396,
			"target":34962
		},
		{
			"buffer":0,
			"byteLength":18936,
			"byteOffset":645800,
			"target":34962
		},
		{
			"buffer":0,
			"byteLength":26880,
			"byteOffset":664736,
			"target":34963
		},
		{
			"buffer":0,
			"byteLength":38556,
			"byteOffset":691616,
			"target":34962
		},
		{
			"buffer":0,
			"byteLength":38556,
			"byteOffset":730172,
			"target":34962
		},
		{
			"buffer":0,
			"byteLength":25704,
			"byteOffset":768728,
			"target":34962
		},
		{
			"buffer":0,
			"byteLength":30912,
			"byteOffset":794432,
			"target":34963
		},
		{
			"buffer":0,
			"byteLength":5016,
			"byteOffset":825344,
			"target":34962
		},
		{
			"buffer":0,
			"byteLength":5016,
			"byteOffset":830360,
			"target":34962
		},
		{
			"buffer":0,
			"byteLength":3344,
			"byteOffset":835376,
			"target":34962
		},
		{
			"buffer":0,
			"byteLength":4608,
			"byteOffset":838720,
			"target":34963
		},
		{
			"buffer":0,
			"byteLength":48,
			"byteOffset":843328,
			"target":34962
		},
		{
			"buffer":0,
			"byteLength":48,
			"byteOffset":843376,
			"target":34962
		},
		{
			"buffer":0,
			"byteLength":32,
			"byteOffset":843424,
			"target":34962
		},
		{
			"buffer":0,
			"byteLength":12,
			"byteOffset":843456,
			"target":34963
		}
	],
	"buffers":[
		{
			"byteLength":843468,
			"uri":"extinguisher.bin"
		}
	]
}
